<svg xmlns="http://www.w3.org/2000/svg" width="30" height="31" viewBox="0 0 30 31">
    <path fill="none" fill-rule="evenodd" stroke="#4A4A4A" stroke-linecap="round" stroke-linejoin="round" d="M10.567 26.935c.8 2.193 2.355 3.194 4.605 3.052 2.01-.128 3.374-1.24 3.743-3.052M1 26.07h28c-3.5-3.101-5.465-6.818-6.136-11.18-.35-2.28-.427-4.605-.619-6.912-.3-3.589-3.044-6.544-6.438-6.924-3.786-.424-7.17 1.684-8.155 5.302-.401 1.477-.42 3.074-.5 4.623-.173 3.324-.655 6.601-2.272 9.523C3.782 22.487 2.289 24.248 1 26.07z"/>
</svg>
