<svg xmlns="http://www.w3.org/2000/svg" width="68" height="21" viewBox="0 0 68 21">
    <g fill="none" fill-rule="evenodd">
        <text fill="#4A4A4A" font-family="OpenSansHebrew-Regular, Open Sans Hebrew" font-size="14">
            <tspan x="27.231" y="18.964">לירון</tspan>
        </text>
        <path stroke="#4A4A4A" d="M20 20.37c-.29-.296-4.783-1.333-5.942-1.63-1.16-.296-.87-.592-.87-1.48 0-.89 0-1.186 1.16-1.186s4.058-.593 4.058-1.185c0-.593-1.16-1.185-1.45-3.556-.29-2.37.29-10.37-6.956-10.666-7.246.296-6.667 8.296-6.957 10.666-.29 2.37-1.449 2.963-1.449 3.556 0 .592 2.899 1.185 4.058 1.185 1.16 0 1.16.296 1.16 1.185 0 .89.29 1.185-.87 1.482C4.782 19.037.29 20.37 0 20.667"/>
    </g>
</svg>
